<?xml version="1.0" standalone="yes"?>
<svg xmlns="http://www.w3.org/2000/svg" width="3300" height="3300">
<path style="fill:#010101; stroke:none;" d="M0 0L0 3300L3300 3300L3300 0L0 0z"/>
<path style="fill:#13a9e6; stroke:none;" d="M1573 1454L1572 1456L1573 1454z"/>
<path style="fill:#27a7d5; stroke:none;" d="M1574.08 1455.18C1567.72 1457.72 1561.28 1471.91 1556 1476.96C1539.44 1492.81 1514.89 1502.1 1492 1498.08C1482.6 1496.43 1474.49 1492.61 1466 1488.48C1464.26 1487.63 1458.76 1484.1 1457.18 1486.66C1453.34 1492.86 1473.4 1500.79 1477 1502.19C1497.86 1510.26 1523.34 1508.02 1543 1497.51C1555.28 1490.95 1565.84 1481.48 1573.57 1469.91C1574.88 1467.96 1583.08 1451.58 1574.08 1455.18z"/>
<path style="fill:#13a9e6; stroke:none;" d="M1577 1454L1578 1455L1577 1454M1578 1455L1579 1456L1578 1455z"/>
<path style="fill:#01ffff; stroke:none;" d="M1571 1456L1572 1457L1571 1456z"/>
<path style="fill:#0181ff; stroke:none;" d="M1570 1458L1571 1459L1570 1458M1569 1460L1570 1461L1569 1460z"/>
<path style="fill:#01ffff; stroke:none;" d="M1567 1463L1568 1464L1567 1463z"/>
<path style="fill:#0181ff; stroke:none;" d="M1565 1466L1566 1467L1565 1466M1575 1466L1576 1467L1575 1466z"/>
<path style="fill:#13a9e6; stroke:none;" d="M1564 1468L1565 1469L1564 1468z"/>
<path style="fill:#01ffff; stroke:none;" d="M1574 1468L1575 1469L1574 1468z"/>
<path style="fill:#13a9e6; stroke:none;" d="M1116 1470L1115 1472L1116 1470z"/>
<path style="fill:#27a7d5; stroke:none;" d="M1117.41 1471.26C1114.02 1472.87 1117.68 1478.23 1118.94 1480C1123.65 1486.63 1130.03 1491.96 1137 1496.07C1155.71 1507.11 1180.75 1507.35 1199 1495.18C1203.72 1492.03 1208.48 1488.08 1211.19 1483C1212.42 1480.69 1213.36 1475.5 1209.03 1476.05C1203.67 1476.72 1198.32 1485.04 1194 1488.01C1184.65 1494.45 1172.19 1497.31 1161 1495.56C1148.7 1493.64 1138.07 1487.3 1129 1478.91C1126.67 1476.75 1121.28 1469.41 1117.41 1471.26z"/>
<path style="fill:#13a9e6; stroke:none;" d="M1119 1470L1120 1471L1119 1470M1562 1470L1563 1471L1562 1470z"/>
<path style="fill:#01ffff; stroke:none;" d="M1121 1471L1122 1472L1121 1471M1561 1471L1562 1472L1561 1471M1572 1471L1573 1472L1572 1471M1122 1472L1123 1473L1122 1472z"/>
<path style="fill:#0181ff; stroke:none;" d="M1115 1473L1116 1474L1115 1473M1123 1473L1124 1474L1123 1473z"/>
<path style="fill:#13a9e6; stroke:none;" d="M1570 1473L1571 1474L1570 1473z"/>
<path style="fill:#01ffff; stroke:none;" d="M1124 1474L1125 1475L1124 1474M1125 1475L1126 1476L1125 1475z"/>
<path style="fill:#0181ff; stroke:none;" d="M1208 1475L1209 1476L1208 1475z"/>
<path style="fill:#01ffff; stroke:none;" d="M1211 1475L1212 1476L1211 1475M1569 1475L1570 1476L1569 1475z"/>
<path style="fill:#13a9e6; stroke:none;" d="M1116 1476L1117 1477L1116 1476z"/>
<path style="fill:#01ffff; stroke:none;" d="M1212 1476L1213 1477L1212 1476z"/>
<path style="fill:#13a9e6; stroke:none;" d="M1568 1476L1569 1477L1568 1476z"/>
<path style="fill:#01ffff; stroke:none;" d="M1117 1478L1118 1479L1117 1478z"/>
<path style="fill:#13a9e6; stroke:none;" d="M1205 1478L1206 1479L1205 1478z"/>
<path style="fill:#0181ff; stroke:none;" d="M1118 1479L1119 1480L1118 1479z"/>
<path style="fill:#01ffff; stroke:none;" d="M1129 1479L1130 1480L1129 1479M1553 1479L1554 1480L1553 1479z"/>
<path style="fill:#13a9e6; stroke:none;" d="M1119 1480L1120 1481L1119 1480z"/>
<path style="fill:#01ffff; stroke:none;" d="M1130 1480L1131 1481L1130 1480z"/>
<path style="fill:#0181ff; stroke:none;" d="M1552 1480L1553 1481L1552 1480z"/>
<path style="fill:#13a9e6; stroke:none;" d="M1131 1481L1132 1482L1131 1481M1212 1481L1213 1482L1212 1481M1211 1482L1212 1483L1211 1482z"/>
<path style="fill:#01ffff; stroke:none;" d="M1548 1483L1549 1484L1548 1483M1135 1484L1136 1485L1135 1484M1210 1484L1211 1485L1210 1484M1123 1485L1124 1486L1123 1485M1197 1485L1198 1486L1197 1485z"/>
<path style="fill:#13a9e6; stroke:none;" d="M1209 1485L1210 1486L1209 1485z"/>
<path style="fill:#01ffff; stroke:none;" d="M1460 1485L1461 1486L1460 1485M1545 1485L1546 1486L1545 1485z"/>
<path style="fill:#13a9e6; stroke:none;" d="M1559 1485L1560 1486L1559 1485z"/>
<path style="fill:#01ffff; stroke:none;" d="M1124 1486L1125 1487L1124 1486M1138 1486L1139 1487L1138 1486z"/>
<path style="fill:#13a9e6; stroke:none;" d="M1196 1486L1197 1487L1196 1486M1461.67 1486.33L1462.33 1486.67L1461.67 1486.33M1544 1486L1545 1487L1544 1486z"/>
<path style="fill:#01ffff; stroke:none;" d="M1125 1487L1126 1488L1125 1487z"/>
<path style="fill:#13a9e6; stroke:none;" d="M1463.67 1487.33L1464.33 1487.67L1463.67 1487.33z"/>
<path style="fill:#01ffff; stroke:none;" d="M1465 1487L1466 1488L1465 1487M1542 1487L1543 1488L1542 1487M1126 1488L1127 1489L1126 1488z"/>
<path style="fill:#0181ff; stroke:none;" d="M1141 1488L1142 1489L1141 1488M1193 1488L1194 1489L1193 1488M1466 1488L1467 1489L1466 1488z"/>
<path style="fill:#01ffff; stroke:none;" d="M1467 1488L1468 1489L1467 1488z"/>
<path style="fill:#0181ff; stroke:none;" d="M1556 1488L1557 1489L1556 1488z"/>
<path style="fill:#13a9e6; stroke:none;" d="M1142 1489L1143 1490L1142 1489z"/>
<path style="fill:#01ffff; stroke:none;" d="M1143 1489L1144 1490L1143 1489M1191 1489L1192 1490L1191 1489z"/>
<path style="fill:#13a9e6; stroke:none;" d="M1192 1489L1193 1490L1192 1489z"/>
<path style="fill:#0181ff; stroke:none;" d="M1468 1489L1469 1490L1468 1489z"/>
<path style="fill:#01ffff; stroke:none;" d="M1555 1489L1556 1490L1555 1489M1145 1490L1146 1491L1145 1490M1457 1490L1458 1491L1457 1490z"/>
<path style="fill:#13a9e6; stroke:none;" d="M1469 1490L1470 1491L1469 1490z"/>
<path style="fill:#01ffff; stroke:none;" d="M1470 1490L1471 1491L1470 1490z"/>
<path style="fill:#13a9e6; stroke:none;" d="M1537 1490L1538 1491L1537 1490M1146 1491L1147 1492L1146 1491z"/>
<path style="fill:#01ffff; stroke:none;" d="M1147 1491L1148 1492L1147 1491z"/>
<path style="fill:#13a9e6; stroke:none;" d="M1203 1491L1204 1492L1203 1491z"/>
<path style="fill:#0181ff; stroke:none;" d="M1458 1491L1459 1492L1458 1491M1471 1491L1472 1492L1471 1491M1552 1491L1553 1492L1552 1491z"/>
<path style="fill:#01ffff; stroke:none;" d="M1131 1492L1132 1493L1131 1492z"/>
<path style="fill:#13a9e6; stroke:none;" d="M1149 1492L1150 1493L1149 1492z"/>
<path style="fill:#01ffff; stroke:none;" d="M1185 1492L1186 1493L1185 1492z"/>
<path style="fill:#0181ff; stroke:none;" d="M1202 1492L1203 1493L1202 1492z"/>
<path style="fill:#13a9e6; stroke:none;" d="M1459 1492L1460 1493L1459 1492M1473 1492L1474 1493L1473 1492z"/>
<path style="fill:#01ffff; stroke:none;" d="M1532 1492L1533 1493L1532 1492z"/>
<path style="fill:#13a9e6; stroke:none;" d="M1550 1492L1551 1493L1550 1492M1133 1493L1134 1494L1133 1493M1151 1493L1152 1494L1151 1493z"/>
<path style="fill:#0181ff; stroke:none;" d="M1152 1493L1153 1494L1152 1493z"/>
<path style="fill:#01ffff; stroke:none;" d="M1201 1493L1202 1494L1201 1493z"/>
<path style="fill:#0181ff; stroke:none;" d="M1460 1493L1461 1494L1460 1493z"/>
<path style="fill:#01ffff; stroke:none;" d="M1476 1493L1477 1494L1476 1493z"/>
<path style="fill:#0181ff; stroke:none;" d="M1530 1493L1531 1494L1530 1493z"/>
<path style="fill:#13a9e6; stroke:none;" d="M1549 1493L1550 1494L1549 1493z"/>
<path style="fill:#0181ff; stroke:none;" d="M1134 1494L1135 1495L1134 1494M1155 1494L1156 1495L1155 1494M1461 1494L1462 1495L1461 1494z"/>
<path style="fill:#13a9e6; stroke:none;" d="M1462 1494L1463 1495L1462 1494M1478 1494L1479 1495L1478 1494z"/>
<path style="fill:#01ffff; stroke:none;" d="M1527 1494L1528 1495L1527 1494M1160 1495L1161 1496L1160 1495M1175 1495L1176 1496L1175 1495M1198 1495L1199 1496L1198 1495M1462 1495L1463 1496L1462 1495z"/>
<path style="fill:#0181ff; stroke:none;" d="M1481 1495L1482 1496L1481 1495z"/>
<path style="fill:#01ffff; stroke:none;" d="M1524 1495L1525 1496L1524 1495M1546 1495L1547 1496L1546 1495M1137 1496L1138 1497L1137 1496z"/>
<path style="fill:#0181ff; stroke:none;" d="M1464 1496L1465 1497L1464 1496z"/>
<path style="fill:#01ffff; stroke:none;" d="M1485 1496L1486 1497L1485 1496z"/>
<path style="fill:#13a9e6; stroke:none;" d="M1521 1496L1522 1497L1521 1496M1544 1496L1545 1497L1544 1496z"/>
<path style="fill:#0181ff; stroke:none;" d="M1139 1497L1140 1498L1139 1497z"/>
<path style="fill:#13a9e6; stroke:none;" d="M1194 1497L1195 1498L1194 1497z"/>
<path style="fill:#01ffff; stroke:none;" d="M1195 1497L1196 1498L1195 1497M1465 1497L1466 1498L1465 1497z"/>
<path style="fill:#0181ff; stroke:none;" d="M1466 1497L1467 1498L1466 1497z"/>
<path style="fill:#13a9e6; stroke:none;" d="M1488 1497L1489 1498L1488 1497z"/>
<path style="fill:#0181ff; stroke:none;" d="M1489 1497L1490 1498L1489 1497z"/>
<path style="fill:#01ffff; stroke:none;" d="M1516 1497L1517 1498L1516 1497z"/>
<path style="fill:#0181ff; stroke:none;" d="M1141 1498L1142 1499L1141 1498z"/>
<path style="fill:#01ffff; stroke:none;" d="M1193 1498L1194 1499L1193 1498M1467 1498L1468 1499L1467 1498z"/>
<path style="fill:#13a9e6; stroke:none;" d="M1468 1498L1469 1499L1468 1498M1494.67 1498.33L1495.33 1498.67L1494.67 1498.33M1510.67 1498.33L1511.33 1498.67L1510.67 1498.33z"/>
<path style="fill:#0181ff; stroke:none;" d="M1143 1499L1144 1500L1143 1499z"/>
<path style="fill:#13a9e6; stroke:none;" d="M1144 1499L1145 1500L1144 1499z"/>
<path style="fill:#01ffff; stroke:none;" d="M1191 1499L1192 1500L1191 1499z"/>
<path style="fill:#0181ff; stroke:none;" d="M1470 1499L1471 1500L1470 1499z"/>
<path style="fill:#13a9e6; stroke:none;" d="M1538 1499L1539 1500L1538 1499z"/>
<path style="fill:#0181ff; stroke:none;" d="M1472 1500L1473 1501L1472 1500z"/>
<path style="fill:#01ffff; stroke:none;" d="M1536 1500L1537 1501L1536 1500M1148 1501L1149 1502L1148 1501z"/>
<path style="fill:#13a9e6; stroke:none;" d="M1185 1501L1186 1502L1185 1501z"/>
<path style="fill:#01ffff; stroke:none;" d="M1186 1501L1187 1502L1186 1501M1474 1501L1475 1502L1474 1501z"/>
<path style="fill:#13a9e6; stroke:none;" d="M1475 1501L1476 1502L1475 1501z"/>
<path style="fill:#01ffff; stroke:none;" d="M1183 1502L1184 1503L1183 1502z"/>
<path style="fill:#13a9e6; stroke:none;" d="M1477 1502L1478 1503L1477 1502z"/>
<path style="fill:#01ffff; stroke:none;" d="M1531 1502L1532 1503L1531 1502z"/>
<path style="fill:#0181ff; stroke:none;" d="M1156 1503L1157 1504L1156 1503z"/>
<path style="fill:#01ffff; stroke:none;" d="M1179 1503L1180 1504L1179 1503z"/>
<path style="fill:#13a9e6; stroke:none;" d="M1480 1503L1481 1504L1480 1503z"/>
<path style="fill:#01ffff; stroke:none;" d="M1483 1504L1484 1505L1483 1504M1524 1504L1525 1505L1524 1504z"/>
<path style="fill:#0181ff; stroke:none;" d="M1519 1505L1520 1506L1519 1505z"/>
<path style="fill:#13a9e6; stroke:none;" d="M1495 1506L1496 1507L1495 1506M1511 1506L1512 1507L1511 1506z"/>
<path style="fill:#0181ff; stroke:none;" d="M1512 1506L1513 1507L1512 1506z"/>
</svg>
