<svg width="3300" height="3300">
<path style="fill:#010101; stroke:none;" d="M0 0L0 3300L3300 3300L3300 0L0 0z"/>
<path style="fill:#04041b; stroke:none;" d="M1489 1426L1490 1427L1489 1426z"/>
<path style="fill:#131315; stroke:none;" d="M1490.67 1426.33L1491.33 1426.67L1490.67 1426.33z"/>
<path style="fill:#0b0d11; stroke:none;" d="M1492 1426.71C1470.07 1427.19 1470.02 1460.92 1492 1460.92C1514.75 1460.92 1514.99 1426.22 1492 1426.71z"/>
<path style="fill:#131315; stroke:none;" d="M1493 1426L1493 1427L1496 1427L1493 1426z"/>
<path style="fill:#04041b; stroke:none;" d="M1496 1426L1497 1427L1496 1426M1485 1427L1486 1428L1485 1427z"/>
<path style="fill:#131315; stroke:none;" d="M1483 1428L1484 1429L1483 1428z"/>
<path style="fill:#04041b; stroke:none;" d="M1150 1429L1151 1430L1150 1429z"/>
<path style="fill:#011616; stroke:none;" d="M1151 1429L1152 1430L1151 1429z"/>
<path style="fill:#04041b; stroke:none;" d="M1152.67 1429.33L1153.33 1429.67L1152.67 1429.33z"/>
<path style="fill:#131315; stroke:none;" d="M1502 1429L1503 1430L1502 1429M1147 1430L1148 1431L1147 1430z"/>
<path style="fill:#0b0d11; stroke:none;" d="M1148 1430.53C1126.91 1435.62 1135.47 1466.45 1156 1461.47C1176.12 1456.59 1168.03 1425.7 1148 1430.53z"/>
<path style="fill:#131315; stroke:none;" d="M1156 1430L1157 1431L1156 1430z"/>
<path style="fill:#04041b; stroke:none;" d="M1157 1430L1158 1431L1157 1430M1144 1431L1145 1432L1144 1431M1159 1431L1160 1432L1159 1431z"/>
<path style="fill:#011616; stroke:none;" d="M1488 1432L1489 1433L1488 1432z"/>
<path style="fill:#010101; stroke:none;" d="M1489.01 1432.5C1474.86 1435.29 1481.43 1457.08 1495 1453.97C1508.79 1450.8 1502.64 1429.81 1489.01 1432.5z"/>
<path style="fill:#011616; stroke:none;" d="M1494 1432L1495 1433L1494 1432z"/>
<path style="fill:#04041b; stroke:none;" d="M1478 1433L1479 1434L1478 1433z"/>
<path style="fill:#131315; stroke:none;" d="M1484 1433L1485 1434L1484 1433M1497 1433L1498 1434L1497 1433M1506 1433L1507 1434L1506 1433z"/>
<path style="fill:#04041b; stroke:none;" d="M1140 1434L1141 1435L1140 1434M1163 1434L1164 1435L1163 1434z"/>
<path style="fill:#131315; stroke:none;" d="M1477 1434L1478 1435L1477 1434M1149 1435L1150 1436L1149 1435z"/>
<path style="fill:#011616; stroke:none;" d="M1150.67 1435.33L1151.33 1435.67L1150.67 1435.33z"/>
<path style="fill:#131315; stroke:none;" d="M1152.67 1435.33L1153.33 1435.67L1152.67 1435.33z"/>
<path style="fill:#04041b; stroke:none;" d="M1483 1435L1484 1436L1483 1435M1146 1436L1147 1437L1146 1436z"/>
<path style="fill:#010101; stroke:none;" d="M1147.05 1436.74C1136.49 1441.1 1143.54 1459.63 1154.98 1454.99C1166.96 1450.14 1159.54 1431.59 1147.05 1436.74z"/>
<path style="fill:#131315; stroke:none;" d="M1476 1436L1477 1437L1476 1436M1144 1437L1145 1438L1144 1437z"/>
<path style="fill:#04041b; stroke:none;" d="M1157 1437L1158 1438L1157 1437M1501 1437L1502 1438L1501 1437z"/>
<path style="fill:#011616; stroke:none;" d="M1143 1438L1144 1439L1143 1438M1475 1438L1476 1439L1475 1438z"/>
<path style="fill:#131315; stroke:none;" d="M1136 1439L1137 1440L1136 1439z"/>
<path style="fill:#04041b; stroke:none;" d="M1502 1439L1503 1440L1502 1439z"/>
<path style="fill:#131315; stroke:none;" d="M1142 1440L1143 1441L1142 1440M1160 1440L1161 1441L1160 1440z"/>
<path style="fill:#04041b; stroke:none;" d="M1480.33 1440.67L1480.67 1441.33L1480.33 1440.67z"/>
<path style="fill:#011616; stroke:none;" d="M1509 1440L1510 1441L1509 1440z"/>
<path style="fill:#04041b; stroke:none;" d="M1135 1441L1136 1442L1135 1441M1142 1441L1143 1442L1142 1441z"/>
<path style="fill:#011616; stroke:none;" d="M1167 1441L1168 1442L1167 1441z"/>
<path style="fill:#131315; stroke:none;" d="M1135 1442L1136 1443L1135 1442M1503 1442L1504 1443L1503 1442M1161 1443L1162 1444L1161 1443z"/>
<path style="fill:#04041b; stroke:none;" d="M1474.33 1443.67L1474.67 1444.33L1474.33 1443.67M1480 1443L1481 1444L1480 1443M1503 1443L1504 1444L1503 1443z"/>
<path style="fill:#131315; stroke:none;" d="M1141 1444L1141 1449L1142 1449L1141 1444z"/>
<path style="fill:#04041b; stroke:none;" d="M1161 1444L1161 1447L1162 1447L1161 1444z"/>
<path style="fill:#131315; stroke:none;" d="M1503 1444L1504 1445L1503 1444z"/>
<path style="fill:#04041b; stroke:none;" d="M1481 1446L1482 1447L1481 1446z"/>
<path style="fill:#131315; stroke:none;" d="M1509 1446L1510 1447L1509 1446z"/>
<path style="fill:#011616; stroke:none;" d="M1161 1447L1162 1448L1161 1447z"/>
<path style="fill:#131315; stroke:none;" d="M1481 1447L1482 1448L1481 1447z"/>
<path style="fill:#04041b; stroke:none;" d="M1502 1447L1503 1448L1502 1447M1509 1447L1510 1448L1509 1447z"/>
<path style="fill:#131315; stroke:none;" d="M1135 1448L1136 1449L1135 1448M1161 1448L1162 1449L1161 1448z"/>
<path style="fill:#04041b; stroke:none;" d="M1475 1448L1476 1449L1475 1448M1135 1449L1136 1450L1135 1449M1501 1449L1502 1450L1501 1449M1142 1450L1143 1451L1142 1450M1160 1450L1161 1451L1160 1450z"/>
<path style="fill:#011616; stroke:none;" d="M1167 1450L1168 1451L1167 1450z"/>
<path style="fill:#04041b; stroke:none;" d="M1483 1450L1484 1451L1483 1450M1508 1450L1509 1451L1508 1450M1484 1451L1485 1452L1484 1451M1136 1452L1137 1453L1136 1452z"/>
<path style="fill:#131315; stroke:none;" d="M1143 1452L1144 1453L1143 1452z"/>
<path style="fill:#04041b; stroke:none;" d="M1485 1452L1486 1453L1485 1452M1507 1452L1508 1453L1507 1452z"/>
<path style="fill:#131315; stroke:none;" d="M1144 1453L1145 1454L1144 1453z"/>
<path style="fill:#04041b; stroke:none;" d="M1487 1453L1488 1454L1487 1453M1156 1454L1157 1455L1156 1454M1478 1454L1479 1455L1478 1454z"/>
<path style="fill:#131315; stroke:none;" d="M1489 1454L1490 1455L1489 1454z"/>
<path style="fill:#04041b; stroke:none;" d="M1490.67 1454.33L1491.33 1454.67L1490.67 1454.33M1493 1454L1494 1455L1493 1454z"/>
<path style="fill:#011616; stroke:none;" d="M1494 1454L1495 1455L1494 1454z"/>
<path style="fill:#131315; stroke:none;" d="M1138 1455L1139 1456L1138 1455z"/>
<path style="fill:#04041b; stroke:none;" d="M1148 1455L1149 1456L1148 1455z"/>
<path style="fill:#011616; stroke:none;" d="M1154 1455L1155 1456L1154 1455z"/>
<path style="fill:#131315; stroke:none;" d="M1479 1455L1480 1456L1479 1455z"/>
<path style="fill:#04041b; stroke:none;" d="M1164 1456L1165 1457L1164 1456z"/>
<path style="fill:#131315; stroke:none;" d="M1480 1456L1481 1457L1480 1456z"/>
<path style="fill:#04041b; stroke:none;" d="M1163 1457L1164 1458L1163 1457M1481 1457L1482 1458L1481 1457M1162 1458L1163 1459L1162 1458z"/>
<path style="fill:#131315; stroke:none;" d="M1501 1458L1502 1459L1501 1458z"/>
<path style="fill:#04041b; stroke:none;" d="M1142 1459L1143 1460L1142 1459z"/>
<path style="fill:#131315; stroke:none;" d="M1499 1459L1500 1460L1499 1459M1144 1460L1145 1461L1144 1460z"/>
<path style="fill:#04041b; stroke:none;" d="M1159 1460L1160 1461L1159 1460M1487 1460L1488 1461L1487 1460z"/>
<path style="fill:#131315; stroke:none;" d="M1496 1460L1497 1461L1496 1460z"/>
<path style="fill:#011616; stroke:none;" d="M1146 1461L1147 1462L1146 1461z"/>
<path style="fill:#131315; stroke:none;" d="M1156 1461L1157 1462L1156 1461z"/>
<path style="fill:#04041b; stroke:none;" d="M1157 1461L1158 1462L1157 1461M1149 1462L1150 1463L1149 1462z"/>
<path style="fill:#011616; stroke:none;" d="M1150 1462L1151 1463L1150 1462z"/>
<path style="fill:#131315; stroke:none;" d="M1151.67 1462.33L1152.33 1462.67L1151.67 1462.33z"/>
<path style="fill:#04041b; stroke:none;" d="M1153 1462L1154 1463L1153 1462z"/>
</svg>
