<?xml version="1.0" standalone="yes"?>
<svg xmlns="http://www.w3.org/2000/svg" width="3300" height="3300">
<path style="fill:#010101; stroke:none;" d="M0 0L0 3300L3300 3300L3300 0L0 0z"/>
<path style="fill:#352120; stroke:none;" d="M1575 1361.43C1568.02 1362.43 1559.4 1363.78 1554.43 1369.33C1543.92 1381.07 1560.89 1385.9 1570 1384.71C1578.04 1383.66 1589.62 1380.48 1593.98 1372.98C1600.28 1362.15 1581.41 1360.51 1575 1361.43z"/>
<path style="fill:#010101; stroke:none;" d="M1558 1375C1564.85 1381.99 1580.43 1376.49 1586 1370C1576.38 1367.16 1566.58 1370.62 1558 1375z"/>
<path style="fill:#352120; stroke:none;" d="M1120 1380.43C1113.02 1381.43 1104.4 1382.78 1099.43 1388.33C1088.92 1400.07 1105.89 1404.9 1115 1403.71C1123.04 1402.66 1134.62 1399.48 1138.98 1391.98C1145.28 1381.15 1126.41 1379.51 1120 1380.43z"/>
<path style="fill:#010101; stroke:none;" d="M1103 1394C1109.85 1400.99 1125.43 1395.49 1131 1389C1121.38 1386.16 1111.58 1389.62 1103 1394z"/>
</svg>
