<?xml version="1.0" standalone="yes"?>
<svg xmlns="http://www.w3.org/2000/svg" width="3300" height="3300">
<path style="fill:#010101; stroke:none;" d="M0 0L0 3300L3300 3300L3300 0L0 0z"/>
<path style="fill:#ff0101; stroke:none;" d="M1562 1370L1563 1370C1569.13 1362.68 1588.57 1362.57 1582.99 1375.96C1578.36 1387.06 1562.1 1382.32 1562 1371C1553.82 1384.19 1577.84 1388.67 1583.54 1377.96C1591.54 1362.93 1568.56 1356.67 1562 1370z"/>
<path style="fill:#ff0510; stroke:none;" d="M1571 1364L1571 1365L1574 1365L1571 1364z"/>
<path style="fill:#ff0e0e; stroke:none;" d="M1574 1366L1578 1365L1574 1366z"/>
<path style="fill:#ff0510; stroke:none;" d="M1578 1364L1579 1365L1578 1364M1567 1365L1568 1366L1567 1365z"/>
<path style="fill:#ff0e0e; stroke:none;" d="M1568.67 1365.33L1569.33 1365.67L1568.67 1365.33z"/>
<path style="fill:#ff090b; stroke:none;" d="M1569.96 1365.51C1564.19 1366.7 1557.8 1376.36 1564.43 1380.82C1567.45 1382.84 1575.63 1381.12 1578.95 1380.13C1584.03 1378.6 1585.41 1370.19 1581.49 1366.75C1578.92 1364.5 1573.12 1364.86 1569.96 1365.51z"/>
<path style="fill:#ff0e0e; stroke:none;" d="M1580 1365L1581 1366L1580 1365z"/>
<path style="fill:#ff0510; stroke:none;" d="M1564 1367L1565 1368L1564 1367M1563 1368L1564 1369L1563 1368z"/>
<path style="fill:#ff0e0e; stroke:none;" d="M1583 1369L1584 1370L1583 1369z"/>
<path style="fill:#ff0510; stroke:none;" d="M1562 1370L1563 1371L1562 1370z"/>
<path style="fill:#ff0e0e; stroke:none;" d="M1583 1373L1584 1374L1583 1373z"/>
<path style="fill:#ff0510; stroke:none;" d="M1583 1375L1584 1376L1583 1375M1581 1379L1582 1380L1581 1379M1573 1380L1574 1381L1573 1380z"/>
<path style="fill:#ff0e0e; stroke:none;" d="M1574.67 1380.33L1575.33 1380.67L1574.67 1380.33z"/>
<path style="fill:#ff0510; stroke:none;" d="M1576 1380L1577 1381L1576 1380z"/>
<path style="fill:#ff0e0e; stroke:none;" d="M1577 1380L1578 1381L1577 1380M1564 1381L1565 1382L1564 1381M1570 1381L1571 1382L1570 1381z"/>
<path style="fill:#ff0101; stroke:none;" d="M1105 1389L1106 1389C1108.86 1386.07 1119.21 1382.5 1123.29 1384.48C1129.33 1387.4 1126.63 1397.31 1121.9 1399.97C1119.13 1401.53 1115.09 1401.43 1112 1402C1124.98 1406.66 1135.26 1385.67 1121.98 1382.32C1118.62 1381.47 1114.93 1382.54 1111.72 1383.51C1108.29 1384.54 1106.58 1385.85 1105 1389z"/>
<path style="fill:#ff0510; stroke:none;" d="M1122 1383L1123 1384L1122 1383z"/>
<path style="fill:#ff0e0e; stroke:none;" d="M1118 1384L1119 1385L1118 1384z"/>
<path style="fill:#ff090b; stroke:none;" d="M1119 1384.48C1115.47 1384.95 1109.13 1385.42 1106.74 1388.32C1102.96 1392.91 1105.3 1402.35 1112 1402.03C1116.41 1401.81 1122.59 1400.91 1125.12 1396.95C1128.58 1391.54 1126.26 1383.52 1119 1384.48z"/>
<path style="fill:#ff0e0e; stroke:none;" d="M1124 1384L1125 1385L1124 1384z"/>
<path style="fill:#ff0510; stroke:none;" d="M1114 1385L1115 1386L1114 1385M1125 1385L1126 1386L1125 1385M1107 1386L1108 1387L1107 1386M1106 1387L1107 1388L1106 1387z"/>
<path style="fill:#ff0e0e; stroke:none;" d="M1126 1388L1127 1389L1126 1388z"/>
<path style="fill:#ff0510; stroke:none;" d="M1105 1389L1106 1390L1105 1389z"/>
<path style="fill:#ff0101; stroke:none;" d="M1104 1390C1103 1395.89 1103.58 1402.09 1110 1404L1104 1390z"/>
<path style="fill:#ff0e0e; stroke:none;" d="M1126 1392L1127 1393L1126 1392z"/>
<path style="fill:#ff0510; stroke:none;" d="M1126 1394L1127 1395L1126 1394z"/>
<path style="fill:#ff0e0e; stroke:none;" d="M1124 1398L1125 1399L1124 1398M1123 1399L1124 1400L1123 1399z"/>
<path style="fill:#ff0510; stroke:none;" d="M1119 1400L1120 1401L1119 1400M1122 1400L1123 1401L1122 1400z"/>
<path style="fill:#ff0e0e; stroke:none;" d="M1114 1401L1115 1402L1114 1401M1109 1402L1110 1403L1109 1402z"/>
<path style="fill:#ff0510; stroke:none;" d="M1111 1402L1112 1403L1111 1402z"/>
</svg>
