<svg width="0" height="0" class="hidden">
  <symbol version="1.1" id="Untitled-3 01 Artboard 1" xmlns="http://www.w3.org/2000/svg" xmlns:xlink="http://www.w3.org/1999/xlink" x="0px" y="0px" xml:space="preserve" viewBox="0 0 640 480">
    <g>
      <g>
        <path d="M330.82,125.01c3.49,1.92,7.09,2.86,10.87,2.93c1.22,0.02,2.06,0.64,2.95,1.23
			c7.41,4.87,14.8,9.77,22.21,14.66c3.02,1.99,6.46,3.09,9.73,4.54c9.72,4.28,16.66,11.72,22.99,19.95
			c6.13,7.96,11.48,16.46,17.45,24.53c6.59,8.91,12.32,18.37,17.88,27.9c3.69,6.34,7.28,12.88,9.62,19.95
			c0.46,1.4,1.1,2.76,1.83,4.05c2.38,4.23,1.98,9.02,2.88,13.54c0.59,2.96,1.55,5.84,2.18,8.8c1.77,8.28,3.91,16.5,3.43,25.1
			c-0.25,4.53-1.22,8.92-2.12,13.32c-1.27,6.26-2.42,12.47-2.21,18.94c0.16,4.97-1.18,9.71-4.78,13.5
			c-1.56,1.64-3.12,3.08-5.68,2.03c-2.74-1.13-3.81-3.26-3.97-6.05c-0.29-4.87,0.53-9.62,1.55-14.34c0.72-3.34,0.89-6.59,0.65-10.06
			c-0.26-3.67-0.77-7.19-1.78-10.67c-0.62-2.15-1.5-4.22-2.49-6.3c-0.21,2.19-0.63,4.38,0.27,6.47c3.59,8.32,0.98,15.38-4.08,22.16
			c-7.23,9.69-16.28,17.32-26.53,23.5c-4.69,2.83-10.07,4.2-15.48,4.95c-8.38,1.15-16.71,0.4-25.08-0.68
			c-7.92-1.03-15.76-2.57-23.68-3.61c-5.25-0.69-9.83,0.68-14.53,2.33c-5.94,2.09-11.88,2.22-17.8,0.03
			c-2.64-0.98-4.21-5.14-3.5-8.89c0.39-2.08,0.9-4.13,1.86-6c2.47-4.81,2.14-9.82,1.08-14.83c-0.56-2.65-0.78-5.15,0.14-7.77
			c1-2.84,0.44-5.81,0.13-8.8c-0.79,2.79-1.65,5.56-2.36,8.37c-1.52,5.99-4.19,11.29-8.45,15.88c-2.61,2.81-5.3,5.48-8.45,7.61
			c-5.21,3.51-9.6,2.23-12.48-3.37c-2.25-4.38-2.72-8.95-2.11-13.78c0.37-2.92,0.14-5.89,0.47-8.85c0.45-4.07,0.88-8.16,0.16-12.31
			c-0.31-1.78-0.6-3.54-1.27-5.18c-1.45-3.55-3.95-4.64-7.76-3.57c-4.69,1.32-7.54,4.8-10.02,8.65c-3.15,4.88-5.1,10.32-7.17,15.71
			c-2.6,6.77-5.58,13.36-9.61,19.43c-2.46,3.71-6.1,4.05-9.9,3.59c-6.74-0.83-8.07-5.13-8.17-11.56
			c-0.22-13.43,0.07-26.87-0.13-40.31c-0.1-6.36-1.04-12.69-1.26-19.05c-0.31-8.8-1.18-17.63-0.44-26.41
			c0.71-8.37,3.09-16.47,5.33-24.56c2.33-8.39,4.12-16.88,5.4-25.51c1.07-7.22,0.75-14.45,0.87-21.69
			c0.16-9.84,2.43-19.31,5.93-28.4c1.93-5.01,6.24-8.42,10.63-11.48c3.7-2.57,7.45-5.08,11.08-7.75c1.93-1.42,3.87-1.92,6.08-1
			c4.32,1.81,8.9,2.01,13.48,2.3c2.55,0.16,5.08,0.59,7.62,0.91c7.54,0.96,15.11,0.25,22.66,0.46c1.1,0.03,2.18,0.01,3.22,0.42
			c2.78,1.11,5.45,1.42,8.56,0.77c2.21-0.46,4.82,0.85,7.11,1.83C327.49,123.24,329.06,124.12,330.82,125.01z M298.48,186.03
			c0.53-0.33,1.13-0.58,1.56-1.01c0.53-0.52,1.28-1.2,0.74-1.99c-0.64-0.92-1.42-0.44-2.21,0.09c-5.15,3.41-11.08,4.84-16.93,6.41
			c-2.21,0.6-2.65,0.19-3-2.14c-0.32-2.09,0.02-4.08,0.43-6.12c0.29-1.42,0.76-2,2.17-1.4c1.55,0.67,3.19,0.69,4.83,0.58
			c0.88-0.06,1.66-0.31,1.93-1.35c1.06-4.13-2.64-8-6.86-7.2c-0.83,0.16-1.71,0.14-2.56,0.14c-2.58,0.02-5.16-0.13-7.72,0.06
			c-1.84,0.13-3.52,0.97-4.16,2.9c-0.39,1.18-0.57,2.47,0.43,3.52c1.46,1.53,3,0.79,4.49,0.08c1.44-0.69,1.82,0.02,1.88,1.29
			c0.07,1.53,0.46,2.93,1.73,3.92c2.01,1.57,0.77,3.93,1.39,5.84c0.18,0.55-0.72,0.65-1.27,0.66c-5.02,0.08-9.84-1.08-14.64-2.39
			c-0.83-0.23-1.85-1.72-2.51-0.2c-0.6,1.38,0.97,1.68,1.87,2.19c0.27,0.15,0.57,0.26,0.87,0.34c8.08,2.18,16.2,3.35,24.43,0.85
			c1.29-0.39,1.53,0.03,1.86,1.16c0.9,3.11,2.38,5.91,4.93,8.06c1.3,1.1,2.62,1.69,4.25,0.79c1.69-0.93,2.03-2.52,1.82-4.21
			c-0.21-1.71-0.97-3.27-1.79-4.79c-0.62-1.15-1.65-2.34-1.66-3.52c-0.01-1.57,2.22-1.08,3.02-2.15
			C297.88,186.33,298.04,186.27,298.48,186.03z M317.46,142.03c-1.2-3.46-2.48-6.81-5.02-9.66c-2.48-2.78-8.23-1.34-8.85,2.43
			c-1.33,8.06-0.97,15.69,4.83,22.16c1.17,1.3,2.67,2.22,4.3,2.72c2.21,0.68,4.16-1.11,4.76-4.27
			C318.3,151.1,318.27,146.76,317.46,142.03z M246.68,142.22c-0.85,2.12-0.94,4.41-1.23,6.63c-0.4,3.1,0.29,6.03,2.24,8.6
			c2.5,3.28,6.38,3.03,8.32-0.54c1.31-2.42,2.23-4.98,2.82-7.66c0.99-4.52,1.21-8.99-1.59-13.03c-2.31-3.34-6.13-3.19-8.13,0.29
			C248.14,138.19,247.28,139.95,246.68,142.22z M272.58,167.25c4.11,1.13,8.3-0.08,12.44,0.47c0.73,0.1,1.51-0.41,1.57-1.4
			c0.05-0.88,0.07-1.74-0.88-2.22c-3.59-1.83-7.36-2.53-11.28-1.46C272.13,163.26,271.4,165.02,272.58,167.25z M276.24,160.78
			c2.06,0.16,4.2-0.44,6.18,0.67c0.67,0.38,1.62,0.6,2.12-0.18c0.5-0.77,0.19-1.61-0.45-2.33c-1.47-1.66-3.39-2.45-5.49-2.8
			c-0.98-0.16-2.02-0.08-3.03-0.02c-1.7,0.1-2.93,1-2.91,2.72C272.68,160.81,274.56,160.43,276.24,160.78z M277.78,141.35
			c-0.21,1.2,0.27,1.82,1.45,2.23c1.14,0.4,2.32,0.14,3.43,0.49c0.96,0.3,1.77,0.11,2-0.93c0.21-0.98-0.44-1.71-1.32-1.92
			C281.57,140.78,279.77,140.1,277.78,141.35z"></path>
        <path d="M321.52,118.91c-2.18-0.45-2.75-1.28-2-3.47c2.63-7.63,6.32-14.74,10.26-21.74c1.46-2.59,3.67-4.37,6.71-4.97
			c5.64-1.12,11.03-3.23,16.72-4.17c2.07-0.35,4.18,0,6.25-0.6c1-0.29,1.21,0.47,0.73,1.28c-1.07,1.81-2.07,3.67-3.28,5.38
			c-2.47,3.5-4.98,6.97-7.05,10.72c-0.9,1.64-2.4,1.78-3.76,1.71c-2.53-0.13-4.73,0.68-7.11,1.68c0.47,0.52,0.93,0.69,1.57,0.48
			c1.22-0.41,2.48-0.27,3.71-0.17c1.39,0.11,2.1,0.65,1.4,2.32c-2.24,5.33-4.06,10.78-3.77,16.68c0.09,1.72-1.05,1.69-2.17,1.55
			c-2.64-0.34-5.2-1.08-7.46-2.49C329,121.05,325.47,119.73,321.52,118.91z"></path>
        <path d="M222.77,101.66c0.15-0.2,0.21-0.26,0.25-0.32c2.98-4.49,4.9-4.77,9.02-1.49c4.5,3.58,8.82,7.37,13.47,10.75
			c2.28,1.66,4.66,3.08,7.26,4.14c0.56,0.23,1.32,0.25,1.33,1.07c0.01,0.66-0.65,0.81-1.08,1.11c-3.96,2.75-7.93,5.48-11.87,8.27
			c-1.73,1.22-3.17,2.78-4.49,4.41c-1.75,2.17-2.05,2.25-3.58-0.19c-1.18-1.88-2.77-3.07-4.84-3.82c-1.6-0.58-2.85-0.15-4.06,0.86
			c-2.33,1.95-3.92,4.39-5,7.22c-0.96,2.54-2.25,4.91-3.95,7.16C215.23,127.33,216.95,114.19,222.77,101.66z"></path>
        <path d="M295.96,197.36c-0.21,2.14-1.11,2.23-2.42,1.04c-2.19-2-3.42-4.56-4.26-7.37c-0.48-1.58,1.03-1.25,1.59-1.78
			c0.67-0.65,1.2-0.14,1.61,0.58C293.83,192.19,295.29,194.5,295.96,197.36z"></path>
        <path d="M305.36,142.01c0-1.4,0-2.57,0-3.74c0-0.7,0.11-1.38,0.3-2.06c0.43-1.6,1.46-2.67,3-2.94
			c1.36-0.25,2.32,0.82,3.03,1.85c1.79,2.57,3.21,5.34,3.79,8.46c0.7,3.77,0.71,7.52-0.22,11.27c-0.7,2.8-2.24,3.04-4.04,1.31
			C307.25,152.32,305.03,147.84,305.36,142.01z"></path>
        <path d="M247.74,147.84c0.7-3.48,1.24-6.8,3.16-9.67c1.26-1.87,2.87-2.01,4.51-0.41c1.21,1.19,1.48,2.78,1.62,4.29
			c0.42,4.52-0.31,8.9-2.66,12.83c-2.11,3.53-3.01,2.95-5.33,0.34C247.19,153.14,247.8,150.51,247.74,147.84z"></path>
      </g>
    </g>
  </symbol>
</svg>