<?xml version="1.0" encoding="utf-8"?>
<!-- Generator: Adobe Illustrator 26.5.0, SVG Export Plug-In . SVG Version: 6.00 Build 0)  -->
<svg version="1.1" xmlns="http://www.w3.org/2000/svg" xmlns:xlink="http://www.w3.org/1999/xlink" x="0px" y="0px"
	 viewBox="0 0 1280 1024" style="enable-background:new 0 0 1280 1024;" xml:space="preserve">
<g id="Layer_1" style="display:none;">
</g>
<g id="Layer_2">
	<g>
		<g>
			<path style="fill:#FFFFFF;" d="M44.07-276.22c5.51,69.8-1.44,140.7,13.52,209.6c43.02,164.3,253.99,164.2,391.69,152.57
				c85.16-6.48,121.81-61,136.66-139.87c14.19-64.05,16.45-129.89,25.14-194.66c0.68-0.06,1.37-0.13,2.05-0.19
				c33.74,160.7,30.7,331.05,97.87,483.55c4.5,11.63,10.39,20.88,24.71,19.61c115.57-3.67,231.15-7.87,346.73-11.58
				c135.68-4.99,297.39,12.29,369.81,143.89c106.92,187.66,66.98,413.54,62.11,619.59c-8.14,71.99-25.44,142.96-35.93,214.7
				c-9.63,46.8-15.8,264.43-71.57,262.79c-39.51-3.36-28.58-19.98,2.67-26.01c-9.04-2.88-8.94-8.72-9.31-14.09
				c-1.52-22.27-3.63-44.54-4.08-66.84c-6.38-80.91,17.03-328.63-59.41-367.84c-12.15-6.55-21.85-4.97-32.07,4.35
				c-136.51,135.48-503.84,160.74-679.47,93.78c-2.32-11.82,3.61-24.29-1.87-36.74c-4.61,6.28-4.36,13.16-4.94,19.53
				c-4.69,52.27-15.3,103.39-28.69,154.05c-10.96,63.03-31.62,123.79-48.78,185.32c-2.63,10.02-8.6,16.27-18.57,18.77
				c-17.79,6.44-51.08,9.38-39.47-18.68c11.1-19.98,28.16-11.34,37.4-22.41c-4.08-4.88-8.84,0.27-13.11-1.2
				c-43.5-92.4-49.98-197.04-69.58-296.13c-17.05-91.87-118.04-125.86-199.2-140.49c-102.22-18.06-109.32,85.58-120.73,159.51
				c-13.69,89.71-31.35,178.56-67.84,262.14c-5.35,13.21-23.39,12.82-35.24,11.11c-22.64-5.67,1.11-24.95,9.92-33.21
				c-4.64-1.34-5.35-6.43-6.47-11.33c-6.61-29-9.55-58.52-11.85-88.08c-23.97-277.75,4.91-555.43,18.7-832.82
				c4.32-91.09-14.66-180.27-26.51-270.07C-16.58,18.38,7.46-132.81,42.18-276.45C42.81-276.37,43.44-276.3,44.07-276.22z"/>
			<path style="fill:none;stroke:#000000;stroke-width:10;stroke-miterlimit:10;" d="M44.07-276.22
				c5.51,69.8-1.44,140.7,13.52,209.6c43.02,164.3,253.99,164.2,391.69,152.57c85.16-6.48,121.81-61,136.66-139.87
				c14.19-64.05,16.45-129.89,25.14-194.66c0.68-0.06,1.37-0.13,2.05-0.19c33.74,160.7,30.7,331.05,97.87,483.55
				c4.5,11.63,10.39,20.88,24.71,19.61c115.57-3.67,231.15-7.87,346.73-11.58c135.68-4.99,297.39,12.29,369.81,143.89
				c106.92,187.66,66.98,413.54,62.11,619.59c-8.14,71.99-25.44,142.96-35.93,214.7c-9.63,46.8-15.8,264.43-71.57,262.79
				c-39.51-3.36-28.58-19.98,2.67-26.01c-9.04-2.88-8.94-8.72-9.31-14.09c-1.52-22.27-3.63-44.54-4.08-66.84
				c-6.38-80.91,17.03-328.63-59.41-367.84c-12.15-6.55-21.85-4.97-32.07,4.35c-136.51,135.48-503.84,160.74-679.47,93.78
				c-2.32-11.82,3.61-24.29-1.87-36.74c-4.61,6.28-4.36,13.16-4.94,19.53c-4.69,52.27-15.3,103.39-28.69,154.05
				c-10.96,63.03-31.62,123.79-48.78,185.32c-2.63,10.02-8.6,16.27-18.57,18.77c-17.79,6.44-51.08,9.38-39.47-18.68
				c11.1-19.98,28.16-11.34,37.4-22.41c-4.08-4.88-8.84,0.27-13.11-1.2c-43.5-92.4-49.98-197.04-69.58-296.13
				c-17.05-91.87-118.04-125.86-199.2-140.49c-102.22-18.06-109.32,85.58-120.73,159.51c-13.69,89.71-31.35,178.56-67.84,262.14
				c-5.35,13.21-23.39,12.82-35.24,11.11c-22.64-5.67,1.11-24.95,9.92-33.21c-4.64-1.34-5.35-6.43-6.47-11.33
				c-6.61-29-9.55-58.52-11.85-88.08c-23.97-277.75,4.91-555.43,18.7-832.82c4.32-91.09-14.66-180.27-26.51-270.07
				C-16.58,18.38,7.46-132.81,42.18-276.45C42.81-276.37,43.44-276.3,44.07-276.22z"/>
		</g>
		<path style="fill:#FFFFFF;stroke:#000000;stroke-width:10;stroke-miterlimit:10;" d="M1132.99,1105.39
			c0.62,96.72-23.91,213.12-34.23,308.75c5.42,22.9-19.25,27.89-36.4,23.32c-19.33-7.89,11.05-21.28,19.18-25.12
			c-7.59-1.99-7.74-8.11-8.97-13.33c-17.91-84.11-38.38-184.38-41.19-270.13C1056.63,1123.16,1108.04,1111.05,1132.99,1105.39z"/>
	</g>
</g>
</svg>
