<svg version="1.1" id="Layer_1" xmlns="http://www.w3.org/2000/svg" xmlns:xlink="http://www.w3.org/1999/xlink" x="0px" y="0px"
	 width="100%" viewBox="0 0 3300 3300" enable-background="new 0 0 3300 3300" xml:space="preserve">
<path fill="#000000" opacity="1.000000" stroke="none" 
	d="
M1606.000000,3302.000000 
	C1070.666748,3302.000000 536.333435,3302.000000 2.000144,3302.000000 
	C2.000096,2202.000244 2.000096,1102.000366 2.000048,2.000439 
	C1101.999634,2.000293 2201.999268,2.000293 3301.999268,2.000146 
	C3301.999512,1101.999512 3301.999512,2201.999023 3301.999756,3301.999268 
	C2737.000000,3302.000000 2172.000000,3302.000000 1606.000000,3302.000000 
M1614.011108,2363.318604 
	C1619.490112,2326.404053 1624.831177,2289.468262 1630.482178,2252.580078 
	C1637.951172,2203.826172 1645.103149,2154.994629 1658.268311,2107.335449 
	C1663.067749,2089.961914 1669.245483,2073.171875 1678.588989,2057.521973 
	C1690.647095,2037.325439 1708.363037,2026.881226 1731.230225,2023.854736 
	C1749.238403,2021.471558 1767.201416,2022.570923 1785.040527,2024.749390 
	C1823.411133,2029.434692 1861.632812,2035.396240 1900.045654,2039.664673 
	C1946.397705,2044.815674 1992.882935,2048.772217 2039.314575,2053.202881 
	C2050.488037,2054.269287 2051.321777,2054.982666 2050.842529,2065.872559 
	C2050.242188,2079.517822 2048.992432,2093.147705 2048.804443,2106.794922 
	C2048.055664,2161.095947 2047.117554,2215.393799 2049.974365,2269.684326 
	C2052.389893,2315.584961 2053.734863,2361.542725 2056.261475,2407.436523 
	C2058.589600,2449.723145 2062.922852,2491.859619 2071.656006,2533.353271 
	C2073.990234,2544.444092 2073.720703,2552.502930 2064.022217,2560.537109 
	C2053.136963,2569.554443 2056.889404,2580.747314 2070.751221,2584.938721 
	C2081.051514,2588.053223 2091.242432,2586.855225 2101.301025,2583.996338 
	C2112.731445,2580.747803 2119.230957,2573.063721 2120.804688,2561.223389 
	C2123.260498,2542.745850 2126.214111,2524.322998 2128.176025,2505.793945 
	C2133.649170,2454.100586 2138.816650,2402.374268 2143.927734,2350.643066 
	C2150.480957,2284.316895 2156.877930,2217.975342 2163.308105,2151.637207 
	C2165.941406,2124.467285 2172.534668,2097.756836 2172.189209,2070.216064 
	C2172.066406,2060.427979 2175.074951,2057.911133 2185.163086,2058.071777 
	C2217.802002,2058.591797 2250.462646,2058.906250 2283.057617,2060.487061 
	C2297.260254,2061.175537 2311.548584,2063.828613 2325.398682,2067.220215 
	C2348.901123,2072.975342 2363.921387,2088.442383 2371.957764,2111.203125 
	C2378.105713,2128.615723 2382.205566,2146.490479 2383.660400,2164.788086 
	C2386.854736,2204.966309 2389.787842,2245.177002 2391.939209,2285.422363 
	C2393.432373,2313.351807 2393.494873,2341.359863 2394.098877,2369.334717 
	C2394.444092,2385.325195 2394.409180,2401.325195 2394.870850,2417.311523 
	C2395.851318,2451.267578 2396.898438,2485.223145 2398.206299,2519.167725 
	C2398.975342,2539.135742 2399.752686,2559.133301 2401.599365,2579.017822 
	C2402.525879,2588.994629 2401.774170,2596.905273 2391.443359,2601.122559 
	C2390.849609,2601.364990 2390.366943,2601.899902 2389.858887,2602.330322 
	C2380.236816,2610.485352 2381.093262,2621.030273 2392.708008,2626.049561 
	C2399.881104,2629.149170 2408.000732,2631.087402 2415.803711,2631.500244 
	C2436.190674,2632.578857 2446.593750,2625.553711 2454.441650,2606.740967 
	C2467.724121,2574.900146 2476.103271,2541.654541 2482.237061,2507.800293 
	C2494.736572,2438.812500 2499.865479,2368.980469 2505.645020,2299.246094 
	C2511.562012,2227.852783 2517.157227,2156.426514 2522.079102,2084.958496 
	C2527.594727,2004.867554 2533.074463,1924.755493 2536.885498,1844.572632 
	C2539.386475,1791.957397 2537.071045,1739.271484 2529.809326,1686.973999 
	C2522.848145,1636.840088 2510.956299,1588.074341 2487.018555,1543.005981 
	C2473.816406,1518.149658 2458.577148,1494.790039 2434.825195,1478.305054 
	C2430.200928,1475.095703 2426.347168,1470.799316 2421.916016,1467.283569 
	C2416.197266,1462.746094 2410.563477,1457.984009 2404.353516,1454.204834 
	C2383.640381,1441.598877 2360.948486,1433.967529 2337.414551,1428.614502 
	C2305.051025,1421.253296 2272.076172,1419.586182 2239.101807,1418.895630 
	C2217.481934,1418.442627 2195.804199,1419.432617 2174.186035,1420.478149 
	C2124.275146,1422.892334 2074.393311,1425.904297 2024.483887,1428.350220 
	C1980.901978,1430.485840 1937.313843,1432.810791 1893.699585,1433.886230 
	C1851.780396,1434.920044 1809.823853,1435.540894 1767.885254,1434.043701 
	C1763.893677,1433.901123 1759.906616,1433.096924 1755.930298,1433.184082 
	C1749.696045,1433.320557 1747.036743,1429.944458 1745.708496,1424.425537 
	C1736.873535,1387.717163 1723.279907,1352.582275 1710.468140,1317.166016 
	C1693.499756,1270.259277 1683.774536,1221.499878 1676.414795,1172.362549 
	C1666.444336,1105.796509 1657.921387,1039.014893 1648.468628,972.369446 
	C1645.006836,947.962708 1640.800293,923.657471 1636.621338,899.359680 
	C1635.612549,893.494629 1633.854736,887.636475 1631.549927,882.149597 
	C1629.105469,876.329956 1623.803223,875.677917 1619.698242,880.418945 
	C1617.806641,882.603760 1616.319702,885.483093 1615.624634,888.289185 
	C1614.107910,894.413757 1612.801025,900.649414 1612.143677,906.916870 
	C1609.918945,928.126831 1608.158691,949.385376 1605.958130,970.598145 
	C1601.520752,1013.371765 1596.573730,1056.075806 1586.712402,1098.034668 
	C1580.887573,1122.819214 1572.976318,1146.772705 1559.220215,1168.473145 
	C1551.589478,1180.510986 1541.983887,1190.484619 1529.570190,1197.601196 
	C1516.171631,1205.282715 1501.978882,1210.730347 1486.754272,1213.766968 
	C1450.244629,1221.049194 1413.206665,1220.815674 1376.269287,1221.903320 
	C1366.978027,1222.176880 1357.651855,1220.903931 1348.334473,1220.720703 
	C1314.604736,1220.057373 1281.116699,1217.256470 1248.119385,1209.894531 
	C1210.717041,1201.549805 1175.302612,1188.535034 1143.601562,1166.364136 
	C1111.136353,1143.658813 1089.612061,1113.516113 1079.912842,1075.025146 
	C1070.638672,1038.221313 1069.566040,1000.520813 1067.958740,962.917786 
	C1067.162231,944.285339 1067.822510,925.594788 1067.291992,906.945618 
	C1066.866089,891.977051 1065.867798,877.012451 1064.633911,862.086548 
	C1064.245972,857.394348 1064.280762,851.013428 1057.702148,850.355896 
	C1051.180298,849.703857 1048.455688,855.379883 1046.858154,860.389832 
	C1043.522705,870.849243 1040.235474,881.421997 1038.230347,892.190613 
	C1030.118652,935.754822 1021.718994,979.288757 1014.876404,1023.060669 
	C1003.336121,1096.883545 995.370483,1171.082031 998.275940,1245.996826 
	C999.166016,1268.947266 1000.280151,1291.977051 1003.110535,1314.744263 
	C1007.588501,1350.764038 1013.977478,1386.542236 1018.837891,1422.519897 
	C1022.446838,1449.233887 1027.015747,1475.899414 1026.478149,1503.038086 
	C1026.339722,1510.026733 1026.863281,1517.026001 1026.963745,1524.022095 
	C1027.312744,1548.331421 1028.431274,1572.665283 1027.720581,1596.944946 
	C1026.804932,1628.229248 1024.576538,1659.480713 1022.604370,1690.726929 
	C1020.442688,1724.973633 1017.869141,1759.194092 1015.583008,1793.433350 
	C1012.564636,1838.638916 1009.453247,1883.839966 1006.774231,1929.066040 
	C1005.375977,1952.670898 1004.802002,1976.324951 1003.885132,1999.957764 
	C1002.762085,2028.907104 1001.097229,2057.849609 1000.704468,2086.809326 
	C1000.175659,2125.797607 1000.636841,2164.799561 1000.674683,2203.795654 
	C1000.685059,2214.460205 1000.399719,2225.135010 1000.773010,2235.787109 
	C1001.729309,2263.076172 1002.669067,2290.372559 1004.186462,2317.634033 
	C1006.352295,2356.542480 1008.406250,2395.475830 1011.725220,2434.294189 
	C1013.622498,2456.485596 1017.765808,2478.497314 1021.261047,2500.532227 
	C1022.285217,2506.988770 1021.473450,2512.268311 1016.632874,2516.941650 
	C1014.269226,2519.223633 1012.301575,2522.044189 1010.641663,2524.903564 
	C1004.175964,2536.041748 1007.939087,2545.890869 1020.656006,2548.237061 
	C1029.348022,2549.840332 1038.613037,2549.911377 1047.424072,2548.916260 
	C1059.758179,2547.523438 1068.263916,2539.812012 1071.709961,2527.958984 
	C1079.893555,2499.812500 1087.979248,2471.645264 1092.492920,2442.557373 
	C1102.984863,2374.944580 1106.762085,2306.713867 1111.853882,2238.602051 
	C1115.084595,2195.384766 1118.769653,2152.211670 1126.415527,2109.514404 
	C1131.009033,2083.862305 1137.386597,2058.631104 1150.012695,2035.518921 
	C1162.015259,2013.548096 1179.884888,1998.831787 1204.915405,1994.630005 
	C1216.994629,1992.602173 1229.423218,1991.654663 1241.671265,1991.824341 
	C1276.529297,1992.306885 1310.587524,1998.981445 1344.161865,2007.763184 
	C1360.877930,2012.135376 1377.437378,2017.562134 1393.468750,2024.002441 
	C1427.145386,2037.531250 1449.347900,2061.942139 1458.484619,2097.390381 
	C1461.472778,2108.983887 1464.525513,2120.750000 1465.601440,2132.613525 
	C1469.511719,2175.729980 1472.909546,2218.899414 1475.914307,2262.089844 
	C1479.659546,2315.923096 1482.244995,2369.841797 1486.433838,2423.637695 
	C1489.460938,2462.513184 1494.177368,2501.277832 1505.733032,2538.783203 
	C1507.572998,2544.755127 1506.203247,2548.640137 1501.460693,2552.678467 
	C1496.197510,2557.159668 1490.944946,2562.176025 1487.343872,2567.985840 
	C1478.040405,2582.996582 1486.299805,2599.766602 1504.020874,2600.454590 
	C1515.444580,2600.898438 1527.165894,2598.528320 1538.453613,2596.051514 
	C1547.161133,2594.140625 1553.891235,2588.054443 1558.073975,2580.055664 
	C1562.073975,2572.406738 1566.145020,2564.633301 1568.774658,2556.460693 
	C1575.604980,2535.231201 1581.735718,2513.774170 1587.984009,2492.361084 
	C1590.222656,2484.689209 1592.392700,2476.959473 1593.917358,2469.124512 
	C1600.663330,2434.458008 1607.163086,2399.743652 1614.011108,2363.318604 
z"/>
<path fill="#261F1D" opacity="1.000000" stroke="none" 
	d="
M1613.881592,2364.182617 
	C1607.163086,2399.743652 1600.663330,2434.458008 1593.917358,2469.124512 
	C1592.392700,2476.959473 1590.222656,2484.689209 1587.984009,2492.361084 
	C1581.735718,2513.774170 1575.604980,2535.231201 1568.774658,2556.460693 
	C1566.145020,2564.633301 1562.073975,2572.406738 1558.073975,2580.055664 
	C1553.891235,2588.054443 1547.161133,2594.140625 1538.453613,2596.051514 
	C1527.165894,2598.528320 1515.444580,2600.898438 1504.020874,2600.454590 
	C1486.299805,2599.766602 1478.040405,2582.996582 1487.343872,2567.985840 
	C1490.944946,2562.176025 1496.197510,2557.159668 1501.460693,2552.678467 
	C1506.203247,2548.640137 1507.572998,2544.755127 1505.733032,2538.783203 
	C1494.177368,2501.277832 1489.460938,2462.513184 1486.433838,2423.637695 
	C1482.244995,2369.841797 1479.659546,2315.923096 1475.914307,2262.089844 
	C1472.909546,2218.899414 1469.511719,2175.729980 1465.601440,2132.613525 
	C1464.525513,2120.750000 1461.472778,2108.983887 1458.484619,2097.390381 
	C1449.347900,2061.942139 1427.145386,2037.531250 1393.468750,2024.002441 
	C1377.437378,2017.562134 1360.877930,2012.135376 1344.161865,2007.763184 
	C1310.587524,1998.981445 1276.529297,1992.306885 1241.671265,1991.824341 
	C1229.423218,1991.654663 1216.994629,1992.602173 1204.915405,1994.630005 
	C1179.884888,1998.831787 1162.015259,2013.548096 1150.012695,2035.518921 
	C1137.386597,2058.631104 1131.009033,2083.862305 1126.415527,2109.514404 
	C1118.769653,2152.211670 1115.084595,2195.384766 1111.853882,2238.602051 
	C1106.762085,2306.713867 1102.984863,2374.944580 1092.492920,2442.557373 
	C1087.979248,2471.645264 1079.893555,2499.812500 1071.709961,2527.958984 
	C1068.263916,2539.812012 1059.758179,2547.523438 1047.424072,2548.916260 
	C1038.613037,2549.911377 1029.348022,2549.840332 1020.656006,2548.237061 
	C1007.939087,2545.890869 1004.175964,2536.041748 1010.641663,2524.903564 
	C1012.301575,2522.044189 1014.269226,2519.223633 1016.632874,2516.941650 
	C1021.473450,2512.268311 1022.285217,2506.988770 1021.261047,2500.532227 
	C1017.765808,2478.497314 1013.622498,2456.485596 1011.725220,2434.294189 
	C1008.406250,2395.475830 1006.352295,2356.542480 1004.186462,2317.634033 
	C1002.669067,2290.372559 1001.729309,2263.076172 1000.773010,2235.787109 
	C1000.399719,2225.135010 1000.685059,2214.460205 1000.674683,2203.795654 
	C1000.636841,2164.799561 1000.175659,2125.797607 1000.704468,2086.809326 
	C1001.097229,2057.849609 1002.762085,2028.907104 1003.885132,1999.957764 
	C1004.802002,1976.324951 1005.375977,1952.670898 1006.774231,1929.066040 
	C1009.453247,1883.839966 1012.564636,1838.638916 1015.583008,1793.433350 
	C1017.869141,1759.194092 1020.442688,1724.973633 1022.604370,1690.726929 
	C1024.576538,1659.480713 1026.804932,1628.229248 1027.720581,1596.944946 
	C1028.431274,1572.665283 1027.312744,1548.331421 1026.963745,1524.022095 
	C1026.863281,1517.026001 1026.339722,1510.026733 1026.478149,1503.038086 
	C1027.015747,1475.899414 1022.446838,1449.233887 1018.837891,1422.519897 
	C1013.977478,1386.542236 1007.588501,1350.764038 1003.110535,1314.744263 
	C1000.280151,1291.977051 999.166016,1268.947266 998.275940,1245.996826 
	C995.370483,1171.082031 1003.336121,1096.883545 1014.876404,1023.060669 
	C1021.718994,979.288757 1030.118652,935.754822 1038.230347,892.190613 
	C1040.235474,881.421997 1043.522705,870.849243 1046.858154,860.389832 
	C1048.455688,855.379883 1051.180298,849.703857 1057.702148,850.355896 
	C1064.280762,851.013428 1064.245972,857.394348 1064.633911,862.086548 
	C1065.867798,877.012451 1066.866089,891.977051 1067.291992,906.945618 
	C1067.822510,925.594788 1067.162231,944.285339 1067.958740,962.917786 
	C1069.566040,1000.520813 1070.638672,1038.221313 1079.912842,1075.025146 
	C1089.612061,1113.516113 1111.136353,1143.658813 1143.601562,1166.364136 
	C1175.302612,1188.535034 1210.717041,1201.549805 1248.119385,1209.894531 
	C1281.116699,1217.256470 1314.604736,1220.057373 1348.334473,1220.720703 
	C1357.651855,1220.903931 1366.978027,1222.176880 1376.269287,1221.903320 
	C1413.206665,1220.815674 1450.244629,1221.049194 1486.754272,1213.766968 
	C1501.978882,1210.730347 1516.171631,1205.282715 1529.570190,1197.601196 
	C1541.983887,1190.484619 1551.589478,1180.510986 1559.220215,1168.473145 
	C1572.976318,1146.772705 1580.887573,1122.819214 1586.712402,1098.034668 
	C1596.573730,1056.075806 1601.520752,1013.371765 1605.958130,970.598145 
	C1608.158691,949.385376 1609.918945,928.126831 1612.143677,906.916870 
	C1612.801025,900.649414 1614.107910,894.413757 1615.624634,888.289185 
	C1616.319702,885.483093 1617.806641,882.603760 1619.698242,880.418945 
	C1623.803223,875.677917 1629.105469,876.329956 1631.549927,882.149597 
	C1633.854736,887.636475 1635.612549,893.494629 1636.621338,899.359680 
	C1640.800293,923.657471 1645.006836,947.962708 1648.468628,972.369446 
	C1657.921387,1039.014893 1666.444336,1105.796509 1676.414795,1172.362549 
	C1683.774536,1221.499878 1693.499756,1270.259277 1710.468140,1317.166016 
	C1723.279907,1352.582275 1736.873535,1387.717163 1745.708496,1424.425537 
	C1747.036743,1429.944458 1749.696045,1433.320557 1755.930298,1433.184082 
	C1759.906616,1433.096924 1763.893677,1433.901123 1767.885254,1434.043701 
	C1809.823853,1435.540894 1851.780396,1434.920044 1893.699585,1433.886230 
	C1937.313843,1432.810791 1980.901978,1430.485840 2024.483887,1428.350220 
	C2074.393311,1425.904297 2124.275146,1422.892334 2174.186035,1420.478149 
	C2195.804199,1419.432617 2217.481934,1418.442627 2239.101807,1418.895630 
	C2272.076172,1419.586182 2305.051025,1421.253296 2337.414551,1428.614502 
	C2360.948486,1433.967529 2383.640381,1441.598877 2404.353516,1454.204834 
	C2410.563477,1457.984009 2416.197266,1462.746094 2421.916016,1467.283569 
	C2426.347168,1470.799316 2430.200928,1475.095703 2434.825195,1478.305054 
	C2458.577148,1494.790039 2473.816406,1518.149658 2487.018555,1543.005981 
	C2510.956299,1588.074341 2522.848145,1636.840088 2529.809326,1686.973999 
	C2537.071045,1739.271484 2539.386475,1791.957397 2536.885498,1844.572632 
	C2533.074463,1924.755493 2527.594727,2004.867554 2522.079102,2084.958496 
	C2517.157227,2156.426514 2511.562012,2227.852783 2505.645020,2299.246094 
	C2499.865479,2368.980469 2494.736572,2438.812500 2482.237061,2507.800293 
	C2476.103271,2541.654541 2467.724121,2574.900146 2454.441650,2606.740967 
	C2446.593750,2625.553711 2436.190674,2632.578857 2415.803711,2631.500244 
	C2408.000732,2631.087402 2399.881104,2629.149170 2392.708008,2626.049561 
	C2381.093262,2621.030273 2380.236816,2610.485352 2389.858887,2602.330322 
	C2390.366943,2601.899902 2390.849609,2601.364990 2391.443359,2601.122559 
	C2401.774170,2596.905273 2402.525879,2588.994629 2401.599365,2579.017822 
	C2399.752686,2559.133301 2398.975342,2539.135742 2398.206299,2519.167725 
	C2396.898438,2485.223145 2395.851318,2451.267578 2394.870850,2417.311523 
	C2394.409180,2401.325195 2394.444092,2385.325195 2394.098877,2369.334717 
	C2393.494873,2341.359863 2393.432373,2313.351807 2391.939209,2285.422363 
	C2389.787842,2245.177002 2386.854736,2204.966309 2383.660400,2164.788086 
	C2382.205566,2146.490479 2378.105713,2128.615723 2371.957764,2111.203125 
	C2363.921387,2088.442383 2348.901123,2072.975342 2325.398682,2067.220215 
	C2311.548584,2063.828613 2297.260254,2061.175537 2283.057617,2060.487061 
	C2250.462646,2058.906250 2217.802002,2058.591797 2185.163086,2058.071777 
	C2175.074951,2057.911133 2172.066406,2060.427979 2172.189209,2070.216064 
	C2172.534668,2097.756836 2165.941406,2124.467285 2163.308105,2151.637207 
	C2156.877930,2217.975342 2150.480957,2284.316895 2143.927734,2350.643066 
	C2138.816650,2402.374268 2133.649170,2454.100586 2128.176025,2505.793945 
	C2126.214111,2524.322998 2123.260498,2542.745850 2120.804688,2561.223389 
	C2119.230957,2573.063721 2112.731445,2580.747803 2101.301025,2583.996338 
	C2091.242432,2586.855225 2081.051514,2588.053223 2070.751221,2584.938721 
	C2056.889404,2580.747314 2053.136963,2569.554443 2064.022217,2560.537109 
	C2073.720703,2552.502930 2073.990234,2544.444092 2071.656006,2533.353271 
	C2062.922852,2491.859619 2058.589600,2449.723145 2056.261475,2407.436523 
	C2053.734863,2361.542725 2052.389893,2315.584961 2049.974365,2269.684326 
	C2047.117554,2215.393799 2048.055664,2161.095947 2048.804443,2106.794922 
	C2048.992432,2093.147705 2050.242188,2079.517822 2050.842529,2065.872559 
	C2051.321777,2054.982666 2050.488037,2054.269287 2039.314575,2053.202881 
	C1992.882935,2048.772217 1946.397705,2044.815674 1900.045654,2039.664673 
	C1861.632812,2035.396240 1823.411133,2029.434692 1785.040527,2024.749390 
	C1767.201416,2022.570923 1749.238403,2021.471558 1731.230225,2023.854736 
	C1708.363037,2026.881226 1690.647095,2037.325439 1678.588989,2057.521973 
	C1669.245483,2073.171875 1663.067749,2089.961914 1658.268311,2107.335449 
	C1645.103149,2154.994629 1637.951172,2203.826172 1630.482178,2252.580078 
	C1624.831177,2289.468262 1619.490112,2326.404053 1613.881592,2364.182617 
M1752.184814,1443.324829 
	C1751.520142,1443.465454 1751.277466,1443.871338 1751.486328,1446.157715 
	C1754.066772,1459.231323 1756.830444,1472.271851 1759.190552,1485.385132 
	C1764.503052,1514.903076 1769.686401,1544.444824 1774.723633,1574.010864 
	C1775.379761,1577.862183 1775.233643,1581.965332 1774.686890,1585.843018 
	C1774.499634,1587.171021 1772.074463,1588.718750 1770.427856,1589.092651 
	C1769.529175,1589.296875 1767.465820,1587.461914 1767.064087,1586.188110 
	C1765.867188,1582.393433 1765.105225,1578.444458 1764.398804,1574.515137 
	C1760.034790,1550.243286 1755.862427,1525.936157 1751.383545,1501.685791 
	C1741.374878,1447.496826 1727.829102,1394.265869 1707.669556,1342.868774 
	C1694.735229,1309.892090 1684.970947,1275.993286 1677.682983,1241.348389 
	C1661.471558,1164.283569 1652.233643,1086.155151 1641.840454,1008.195251 
	C1637.745850,977.480469 1632.881348,946.867737 1628.270020,916.223267 
	C1627.766968,912.880554 1626.616089,909.635315 1625.765625,906.344910 
	C1624.906982,906.429138 1624.048340,906.513428 1623.189697,906.597717 
	C1622.723755,910.050415 1622.211914,913.497681 1621.798706,916.956726 
	C1616.027954,965.256531 1611.029297,1013.665039 1604.235474,1061.820312 
	C1599.904419,1092.520020 1592.200928,1122.651367 1578.927856,1150.984741 
	C1563.961426,1182.932983 1540.640747,1205.713135 1506.873169,1217.560181 
	C1478.449097,1227.532593 1448.906006,1229.907349 1419.282349,1231.154419 
	C1383.324219,1232.668335 1347.335938,1232.390869 1311.378906,1229.866821 
	C1259.656982,1226.236084 1209.834717,1215.640259 1163.363892,1191.663330 
	C1107.359375,1162.767700 1073.364014,1118.085815 1064.055664,1055.185913 
	C1059.116211,1021.808838 1057.702148,988.213989 1056.678223,954.572571 
	C1055.958984,930.936584 1055.330566,907.297791 1054.560669,883.663574 
	C1054.508423,882.057739 1053.608765,880.479431 1053.103149,878.888367 
	C1050.363770,883.479126 1048.990356,887.916992 1048.186157,892.455811 
	C1040.048340,938.391846 1031.261719,984.229126 1024.104858,1030.318970 
	C1013.252563,1100.208252 1006.096985,1170.500488 1008.028442,1241.367798 
	C1008.672058,1264.983521 1010.165039,1288.686035 1013.177307,1312.103394 
	C1018.575684,1354.069214 1025.217041,1395.880615 1031.712036,1437.698486 
	C1039.315674,1486.654419 1040.410889,1535.946167 1039.142090,1585.286499 
	C1038.320557,1617.237793 1035.932739,1649.155029 1033.946289,1681.068726 
	C1031.793457,1715.653198 1029.288208,1750.215698 1026.943237,1784.788086 
	C1023.944763,1828.995483 1020.585754,1873.182373 1018.075684,1917.417603 
	C1016.113525,1951.996460 1014.927429,1986.627075 1013.907532,2021.249756 
	C1012.751282,2060.502686 1012.120361,2099.771484 1011.349487,2139.035400 
	C1010.976685,2158.023926 1010.336182,2177.024414 1010.672058,2196.004639 
	C1011.031067,2216.291260 1012.491150,2236.556152 1013.303162,2256.837158 
	C1014.688904,2291.448486 1015.284607,2326.105957 1017.440002,2360.667480 
	C1019.575134,2394.904785 1022.752380,2429.098389 1026.426270,2463.208496 
	C1028.118530,2478.921143 1029.518188,2495.043701 1038.748535,2509.425781 
	C1036.380859,2511.371826 1034.222656,2512.849121 1032.429932,2514.683350 
	C1028.956421,2518.237793 1025.097046,2521.617676 1022.470276,2525.751465 
	C1018.255859,2532.384033 1021.073059,2538.434082 1028.831421,2539.872559 
	C1037.155884,2541.415771 1045.455811,2540.760254 1053.380493,2537.480225 
	C1058.960938,2535.170654 1062.586548,2531.211182 1063.979248,2525.138184 
	C1068.521729,2505.328613 1073.802734,2485.669922 1077.731079,2465.742188 
	C1089.686646,2405.097900 1093.439941,2343.498779 1097.994141,2282.024414 
	C1101.711914,2231.838867 1104.880981,2181.613037 1112.240723,2131.780518 
	C1116.684937,2101.688965 1123.241211,2072.183594 1135.474121,2044.106323 
	C1151.578979,2007.142090 1179.543823,1986.229370 1219.503906,1982.336792 
	C1233.989868,1980.925659 1248.849121,1980.899902 1263.330322,1982.336304 
	C1310.590088,1987.023926 1356.928711,1996.127808 1401.119141,2014.355103 
	C1434.964966,2028.315430 1457.634888,2052.183105 1468.170166,2087.569824 
	C1474.682129,2109.442627 1478.195679,2131.824707 1479.844971,2154.419189 
	C1483.409912,2203.257324 1485.959717,2252.168945 1489.322021,2301.022949 
	C1492.753052,2350.874756 1495.672974,2400.794434 1500.751221,2450.486572 
	C1503.518555,2477.564697 1510.229126,2504.245605 1515.318481,2531.076172 
	C1516.707520,2538.399902 1519.494751,2544.650391 1528.877441,2543.833252 
	C1529.937256,2543.740723 1531.109497,2544.938232 1532.252075,2545.549316 
	C1532.401123,2550.121582 1529.508911,2551.744385 1526.314819,2552.871582 
	C1523.181152,2553.976807 1519.753174,2554.354248 1516.755249,2555.714600 
	C1511.661621,2558.025879 1506.313110,2560.228516 1501.965210,2563.621826 
	C1495.854126,2568.391357 1493.856689,2577.634277 1496.901001,2583.536133 
	C1500.386353,2590.293701 1507.009644,2591.289062 1513.337769,2590.246094 
	C1542.220215,2585.487061 1547.013672,2584.828857 1557.285767,2555.899658 
	C1558.955566,2551.197021 1560.004272,2546.277588 1561.494873,2541.506836 
	C1562.685303,2537.696533 1564.177124,2533.981445 1565.421631,2530.186768 
	C1569.572021,2517.531250 1574.388550,2505.041260 1577.665405,2492.161377 
	C1591.324829,2438.469727 1599.632324,2383.761719 1608.161011,2329.085449 
	C1617.508545,2269.161377 1627.171509,2209.281250 1637.383667,2149.499512 
	C1642.049683,2122.184570 1649.658325,2095.474854 1661.449707,2070.295410 
	C1679.171387,2032.452026 1708.111694,2011.815308 1751.176392,2011.966309 
	C1782.339600,2012.075562 1812.963745,2016.504395 1843.662354,2020.622925 
	C1903.780884,2028.688232 1963.823364,2037.567139 2024.485596,2040.416138 
	C2075.388916,2042.806641 2126.328369,2044.472412 2177.262451,2046.137817 
	C2212.219971,2047.280884 2247.208252,2047.545776 2282.156738,2048.882080 
	C2295.093506,2049.376709 2308.098389,2051.067383 2320.823730,2053.508545 
	C2351.380371,2059.370850 2373.126953,2076.589844 2382.887695,2106.555420 
	C2387.817139,2121.688232 2391.764648,2137.381836 2393.941650,2153.127930 
	C2401.894043,2210.644775 2402.740479,2268.689697 2405.258545,2326.594727 
	C2406.286133,2350.219238 2406.718018,2373.871338 2407.261475,2397.514404 
	C2408.034424,2431.152344 2408.482910,2464.798340 2409.413086,2498.431641 
	C2410.002441,2519.741943 2410.832520,2541.061523 2412.297363,2562.325684 
	C2413.131592,2574.439209 2412.598877,2587.035889 2420.815186,2598.642822 
	C2417.316650,2600.179688 2414.755127,2601.422607 2412.105957,2602.436768 
	C2409.311768,2603.506592 2406.333008,2604.134766 2403.618896,2605.362549 
	C2400.230713,2606.895508 2396.271240,2609.101074 2397.421143,2613.252930 
	C2398.141846,2615.854248 2401.400879,2618.891113 2404.075684,2619.580811 
	C2410.112061,2621.137695 2416.485107,2621.876221 2422.735840,2621.968994 
	C2428.285889,2622.051758 2433.380127,2619.382568 2436.201172,2614.509033 
	C2441.848877,2604.754150 2448.166748,2595.120850 2451.996338,2584.629883 
	C2463.119873,2554.155762 2469.174072,2522.348877 2474.142578,2490.366699 
	C2485.154297,2419.487305 2490.122314,2347.976807 2496.030762,2276.575195 
	C2500.674805,2220.451904 2504.851318,2164.288818 2509.009033,2108.126709 
	C2512.994629,2054.294434 2517.083740,2000.464478 2520.382080,1946.587769 
	C2522.885254,1905.699097 2525.276123,1864.750488 2525.736572,1823.806396 
	C2526.103027,1791.212891 2524.295410,1758.527832 2521.991211,1725.986938 
	C2518.372314,1674.883057 2508.753906,1624.879883 2489.759033,1577.045532 
	C2478.356445,1548.330322 2463.345459,1521.605225 2442.073975,1498.992920 
	C2413.117676,1468.210815 2377.293701,1449.411255 2336.187012,1440.180298 
	C2304.802002,1433.132690 2272.925537,1430.496216 2240.921875,1430.035034 
	C2215.958496,1429.675415 2190.965576,1430.861084 2165.995361,1431.660400 
	C2147.017090,1432.268066 2128.047607,1433.227783 2109.085693,1434.245239 
	C2079.145264,1435.851685 2049.224121,1437.832153 2019.276733,1439.288696 
	C1993.988770,1440.518311 1968.675293,1441.228882 1943.373169,1442.168335 
	C1915.084229,1443.218750 1886.798462,1445.011719 1858.505737,1445.129395 
	C1823.207642,1445.276367 1787.903931,1444.042725 1752.184814,1443.324829 
M2149.654297,2148.689453 
	C2152.913330,2123.560059 2157.254150,2098.673828 2165.127197,2074.486816 
	C2170.228027,2058.814941 2168.109375,2056.387451 2151.901855,2056.126709 
	C2131.611084,2055.800049 2111.328613,2054.982178 2091.040771,2054.436768 
	C2083.716309,2054.239746 2076.382324,2054.007080 2069.061523,2054.177246 
	C2062.360107,2054.332764 2060.071777,2056.230225 2058.786865,2062.729004 
	C2058.018799,2066.612305 2057.805176,2070.667725 2057.851562,2074.640137 
	C2058.486572,2128.878174 2058.918701,2183.121094 2060.018066,2237.350342 
	C2060.719238,2271.940430 2061.704346,2306.556396 2063.891357,2341.076416 
	C2066.605957,2383.916992 2069.623291,2426.794922 2074.566162,2469.417969 
	C2077.851074,2497.743164 2078.785889,2527.023682 2093.708252,2553.427734 
	C2092.074951,2554.386963 2090.435791,2555.366943 2088.780029,2556.318115 
	C2083.914795,2559.112061 2078.491211,2561.252686 2074.312500,2564.843018 
	C2068.976807,2569.426758 2070.369385,2575.191895 2077.193848,2576.653564 
	C2082.559814,2577.802734 2088.476807,2577.687744 2093.936279,2576.810059 
	C2104.432129,2575.123291 2107.244141,2571.377441 2108.173096,2560.765137 
	C2108.809570,2553.491455 2109.515625,2546.219238 2110.408691,2538.973389 
	C2114.277100,2507.585938 2118.677246,2476.256592 2122.020020,2444.813965 
	C2125.433350,2412.707275 2127.793213,2380.489502 2130.695312,2348.327393 
	C2133.776855,2314.176270 2136.874512,2280.025879 2140.111816,2245.889160 
	C2143.128906,2214.073730 2146.338135,2182.276855 2149.654297,2148.689453 
z"/>
<path fill="#000000" opacity="1.000000" stroke="none" 
	d="
M1752.602661,1443.405396 
	C1787.903931,1444.042725 1823.207642,1445.276367 1858.505737,1445.129395 
	C1886.798462,1445.011719 1915.084229,1443.218750 1943.373169,1442.168335 
	C1968.675293,1441.228882 1993.988770,1440.518311 2019.276733,1439.288696 
	C2049.224121,1437.832153 2079.145264,1435.851685 2109.085693,1434.245239 
	C2128.047607,1433.227783 2147.017090,1432.268066 2165.995361,1431.660400 
	C2190.965576,1430.861084 2215.958496,1429.675415 2240.921875,1430.035034 
	C2272.925537,1430.496216 2304.802002,1433.132690 2336.187012,1440.180298 
	C2377.293701,1449.411255 2413.117676,1468.210815 2442.073975,1498.992920 
	C2463.345459,1521.605225 2478.356445,1548.330322 2489.759033,1577.045532 
	C2508.753906,1624.879883 2518.372314,1674.883057 2521.991211,1725.986938 
	C2524.295410,1758.527832 2526.103027,1791.212891 2525.736572,1823.806396 
	C2525.276123,1864.750488 2522.885254,1905.699097 2520.382080,1946.587769 
	C2517.083740,2000.464478 2512.994629,2054.294434 2509.009033,2108.126709 
	C2504.851318,2164.288818 2500.674805,2220.451904 2496.030762,2276.575195 
	C2490.122314,2347.976807 2485.154297,2419.487305 2474.142578,2490.366699 
	C2469.174072,2522.348877 2463.119873,2554.155762 2451.996338,2584.629883 
	C2448.166748,2595.120850 2441.848877,2604.754150 2436.201172,2614.509033 
	C2433.380127,2619.382568 2428.285889,2622.051758 2422.735840,2621.968994 
	C2416.485107,2621.876221 2410.112061,2621.137695 2404.075684,2619.580811 
	C2401.400879,2618.891113 2398.141846,2615.854248 2397.421143,2613.252930 
	C2396.271240,2609.101074 2400.230713,2606.895508 2403.618896,2605.362549 
	C2406.333008,2604.134766 2409.311768,2603.506592 2412.105957,2602.436768 
	C2414.755127,2601.422607 2417.316650,2600.179688 2420.815186,2598.642822 
	C2412.598877,2587.035889 2413.131592,2574.439209 2412.297363,2562.325684 
	C2410.832520,2541.061523 2410.002441,2519.741943 2409.413086,2498.431641 
	C2408.482910,2464.798340 2408.034424,2431.152344 2407.261475,2397.514404 
	C2406.718018,2373.871338 2406.286133,2350.219238 2405.258545,2326.594727 
	C2402.740479,2268.689697 2401.894043,2210.644775 2393.941650,2153.127930 
	C2391.764648,2137.381836 2387.817139,2121.688232 2382.887695,2106.555420 
	C2373.126953,2076.589844 2351.380371,2059.370850 2320.823730,2053.508545 
	C2308.098389,2051.067383 2295.093506,2049.376709 2282.156738,2048.882080 
	C2247.208252,2047.545776 2212.219971,2047.280884 2177.262451,2046.137817 
	C2126.328369,2044.472412 2075.388916,2042.806641 2024.485596,2040.416138 
	C1963.823364,2037.567139 1903.780884,2028.688232 1843.662354,2020.622925 
	C1812.963745,2016.504395 1782.339600,2012.075562 1751.176392,2011.966309 
	C1708.111694,2011.815308 1679.171387,2032.452026 1661.449707,2070.295410 
	C1649.658325,2095.474854 1642.049683,2122.184570 1637.383667,2149.499512 
	C1627.171509,2209.281250 1617.508545,2269.161377 1608.161011,2329.085449 
	C1599.632324,2383.761719 1591.324829,2438.469727 1577.665405,2492.161377 
	C1574.388550,2505.041260 1569.572021,2517.531250 1565.421631,2530.186768 
	C1564.177124,2533.981445 1562.685303,2537.696533 1561.494873,2541.506836 
	C1560.004272,2546.277588 1558.955566,2551.197021 1557.285767,2555.899658 
	C1547.013672,2584.828857 1542.220215,2585.487061 1513.337769,2590.246094 
	C1507.009644,2591.289062 1500.386353,2590.293701 1496.901001,2583.536133 
	C1493.856689,2577.634277 1495.854126,2568.391357 1501.965210,2563.621826 
	C1506.313110,2560.228516 1511.661621,2558.025879 1516.755249,2555.714600 
	C1519.753174,2554.354248 1523.181152,2553.976807 1526.314819,2552.871582 
	C1529.508911,2551.744385 1532.401123,2550.121582 1532.252075,2545.549316 
	C1531.109497,2544.938232 1529.937256,2543.740723 1528.877441,2543.833252 
	C1519.494751,2544.650391 1516.707520,2538.399902 1515.318481,2531.076172 
	C1510.229126,2504.245605 1503.518555,2477.564697 1500.751221,2450.486572 
	C1495.672974,2400.794434 1492.753052,2350.874756 1489.322021,2301.022949 
	C1485.959717,2252.168945 1483.409912,2203.257324 1479.844971,2154.419189 
	C1478.195679,2131.824707 1474.682129,2109.442627 1468.170166,2087.569824 
	C1457.634888,2052.183105 1434.964966,2028.315430 1401.119141,2014.355103 
	C1356.928711,1996.127808 1310.590088,1987.023926 1263.330322,1982.336304 
	C1248.849121,1980.899902 1233.989868,1980.925659 1219.503906,1982.336792 
	C1179.543823,1986.229370 1151.578979,2007.142090 1135.474121,2044.106323 
	C1123.241211,2072.183594 1116.684937,2101.688965 1112.240723,2131.780518 
	C1104.880981,2181.613037 1101.711914,2231.838867 1097.994141,2282.024414 
	C1093.439941,2343.498779 1089.686646,2405.097900 1077.731079,2465.742188 
	C1073.802734,2485.669922 1068.521729,2505.328613 1063.979248,2525.138184 
	C1062.586548,2531.211182 1058.960938,2535.170654 1053.380493,2537.480225 
	C1045.455811,2540.760254 1037.155884,2541.415771 1028.831421,2539.872559 
	C1021.073059,2538.434082 1018.255859,2532.384033 1022.470276,2525.751465 
	C1025.097046,2521.617676 1028.956421,2518.237793 1032.429932,2514.683350 
	C1034.222656,2512.849121 1036.380859,2511.371826 1038.748535,2509.425781 
	C1029.518188,2495.043701 1028.118530,2478.921143 1026.426270,2463.208496 
	C1022.752380,2429.098389 1019.575134,2394.904785 1017.440002,2360.667480 
	C1015.284607,2326.105957 1014.688904,2291.448486 1013.303162,2256.837158 
	C1012.491150,2236.556152 1011.031067,2216.291260 1010.672058,2196.004639 
	C1010.336182,2177.024414 1010.976685,2158.023926 1011.349487,2139.035400 
	C1012.120361,2099.771484 1012.751282,2060.502686 1013.907532,2021.249756 
	C1014.927429,1986.627075 1016.113525,1951.996460 1018.075684,1917.417603 
	C1020.585754,1873.182373 1023.944763,1828.995483 1026.943237,1784.788086 
	C1029.288208,1750.215698 1031.793457,1715.653198 1033.946289,1681.068726 
	C1035.932739,1649.155029 1038.320557,1617.237793 1039.142090,1585.286499 
	C1040.410889,1535.946167 1039.315674,1486.654419 1031.712036,1437.698486 
	C1025.217041,1395.880615 1018.575684,1354.069214 1013.177307,1312.103394 
	C1010.165039,1288.686035 1008.672058,1264.983521 1008.028442,1241.367798 
	C1006.096985,1170.500488 1013.252563,1100.208252 1024.104858,1030.318970 
	C1031.261719,984.229126 1040.048340,938.391846 1048.186157,892.455811 
	C1048.990356,887.916992 1050.363770,883.479126 1053.103149,878.888367 
	C1053.608765,880.479431 1054.508423,882.057739 1054.560669,883.663574 
	C1055.330566,907.297791 1055.958984,930.936584 1056.678223,954.572571 
	C1057.702148,988.213989 1059.116211,1021.808838 1064.055664,1055.185913 
	C1073.364014,1118.085815 1107.359375,1162.767700 1163.363892,1191.663330 
	C1209.834717,1215.640259 1259.656982,1226.236084 1311.378906,1229.866821 
	C1347.335938,1232.390869 1383.324219,1232.668335 1419.282349,1231.154419 
	C1448.906006,1229.907349 1478.449097,1227.532593 1506.873169,1217.560181 
	C1540.640747,1205.713135 1563.961426,1182.932983 1578.927856,1150.984741 
	C1592.200928,1122.651367 1599.904419,1092.520020 1604.235474,1061.820312 
	C1611.029297,1013.665039 1616.027954,965.256531 1621.798706,916.956726 
	C1622.211914,913.497681 1622.723755,910.050415 1623.189697,906.597717 
	C1624.048340,906.513428 1624.906982,906.429138 1625.765625,906.344910 
	C1626.616089,909.635315 1627.766968,912.880554 1628.270020,916.223267 
	C1632.881348,946.867737 1637.745850,977.480469 1641.840454,1008.195251 
	C1652.233643,1086.155151 1661.471558,1164.283569 1677.682983,1241.348389 
	C1684.970947,1275.993286 1694.735229,1309.892090 1707.669556,1342.868774 
	C1727.829102,1394.265869 1741.374878,1447.496826 1751.383545,1501.685791 
	C1755.862427,1525.936157 1760.034790,1550.243286 1764.398804,1574.515137 
	C1765.105225,1578.444458 1765.867188,1582.393433 1767.064087,1586.188110 
	C1767.465820,1587.461914 1769.529175,1589.296875 1770.427856,1589.092651 
	C1772.074463,1588.718750 1774.499634,1587.171021 1774.686890,1585.843018 
	C1775.233643,1581.965332 1775.379761,1577.862183 1774.723633,1574.010864 
	C1769.686401,1544.444824 1764.503052,1514.903076 1759.190552,1485.385132 
	C1756.830444,1472.271851 1754.066772,1459.231323 1751.754883,1445.062622 
	C1752.023315,1443.967529 1752.602661,1443.405396 1752.602661,1443.405396 
z"/>
<path fill="#000000" opacity="1.000000" stroke="none" 
	d="
M2149.558594,2149.580566 
	C2146.338135,2182.276855 2143.128906,2214.073730 2140.111816,2245.889160 
	C2136.874512,2280.025879 2133.776855,2314.176270 2130.695312,2348.327393 
	C2127.793213,2380.489502 2125.433350,2412.707275 2122.020020,2444.813965 
	C2118.677246,2476.256592 2114.277100,2507.585938 2110.408691,2538.973389 
	C2109.515625,2546.219238 2108.809570,2553.491455 2108.173096,2560.765137 
	C2107.244141,2571.377441 2104.432129,2575.123291 2093.936279,2576.810059 
	C2088.476807,2577.687744 2082.559814,2577.802734 2077.193848,2576.653564 
	C2070.369385,2575.191895 2068.976807,2569.426758 2074.312500,2564.843018 
	C2078.491211,2561.252686 2083.914795,2559.112061 2088.780029,2556.318115 
	C2090.435791,2555.366943 2092.074951,2554.386963 2093.708252,2553.427734 
	C2078.785889,2527.023682 2077.851074,2497.743164 2074.566162,2469.417969 
	C2069.623291,2426.794922 2066.605957,2383.916992 2063.891357,2341.076416 
	C2061.704346,2306.556396 2060.719238,2271.940430 2060.018066,2237.350342 
	C2058.918701,2183.121094 2058.486572,2128.878174 2057.851562,2074.640137 
	C2057.805176,2070.667725 2058.018799,2066.612305 2058.786865,2062.729004 
	C2060.071777,2056.230225 2062.360107,2054.332764 2069.061523,2054.177246 
	C2076.382324,2054.007080 2083.716309,2054.239746 2091.040771,2054.436768 
	C2111.328613,2054.982178 2131.611084,2055.800049 2151.901855,2056.126709 
	C2168.109375,2056.387451 2170.228027,2058.814941 2165.127197,2074.486816 
	C2157.254150,2098.673828 2152.913330,2123.560059 2149.558594,2149.580566 
z"/>
<path fill="#000000" opacity="1.000000" stroke="none" 
	d="
M1751.739990,1444.255127 
	C1751.277466,1443.871338 1751.520142,1443.465454 1752.393799,1443.365112 
	C1752.602661,1443.405396 1752.023315,1443.967529 1751.739990,1444.255127 
z"/>
</svg>